<svg width="59" height="49" viewBox="0 0 59 49" fill="none" xmlns="http://www.w3.org/2000/svg">
<path d="M20.9355 8.82V0.98C20.9355 0.720088 21.0357 0.470821 21.2142 0.287035C21.3927 0.10325 21.6347 0 21.8871 0C22.1395 0 22.3815 0.10325 22.56 0.287035C22.7385 0.470821 22.8387 0.720088 22.8387 0.98V8.82C22.8387 9.07991 22.7385 9.32918 22.56 9.51296C22.3815 9.69675 22.1395 9.8 21.8871 9.8C21.6347 9.8 21.3927 9.69675 21.2142 9.51296C21.0357 9.32918 20.9355 9.07991 20.9355 8.82ZM29.5 9.8C29.7524 9.8 29.9944 9.69675 30.1729 9.51296C30.3514 9.32918 30.4516 9.07991 30.4516 8.82V0.98C30.4516 0.720088 30.3514 0.470821 30.1729 0.287035C29.9944 0.10325 29.7524 0 29.5 0C29.2476 0 29.0056 0.10325 28.8271 0.287035C28.6486 0.470821 28.5484 0.720088 28.5484 0.98V8.82C28.5484 9.07991 28.6486 9.32918 28.8271 9.51296C29.0056 9.69675 29.2476 9.8 29.5 9.8ZM37.1129 9.8C37.3653 9.8 37.6073 9.69675 37.7858 9.51296C37.9643 9.32918 38.0645 9.07991 38.0645 8.82V0.98C38.0645 0.720088 37.9643 0.470821 37.7858 0.287035C37.6073 0.10325 37.3653 0 37.1129 0C36.8605 0 36.6185 0.10325 36.44 0.287035C36.2615 0.470821 36.1613 0.720088 36.1613 0.98V8.82C36.1613 9.07991 36.2615 9.32918 36.44 9.51296C36.6185 9.69675 36.8605 9.8 37.1129 9.8ZM58.6193 21.364L51.3871 26.95V42.14C51.3871 43.9594 50.6853 45.7042 49.436 46.9907C48.1868 48.2772 46.4925 49 44.7258 49H14.2742C12.5075 49 10.8132 48.2772 9.56395 46.9907C8.31472 45.7042 7.61291 43.9594 7.61291 42.14V26.95L0.380649 21.364C0.178742 21.208 0.0452605 20.9759 0.00956808 20.7186C-0.0261243 20.4613 0.0388964 20.1999 0.190326 19.992C0.341756 19.7841 0.567191 19.6466 0.817038 19.6098C1.06689 19.5731 1.32068 19.6401 1.52258 19.796L7.61291 24.5V18.62C7.61291 17.8403 7.91368 17.0925 8.44907 16.5411C8.98445 15.9897 9.71059 15.68 10.4677 15.68H48.5323C49.2894 15.68 50.0155 15.9897 50.5509 16.5411C51.0863 17.0925 51.3871 17.8403 51.3871 18.62V24.5L57.4774 19.796C57.6793 19.6401 57.9331 19.5731 58.183 19.6098C58.4328 19.6466 58.6582 19.7841 58.8097 19.992C58.9611 20.1999 59.0261 20.4613 58.9904 20.7186C58.9547 20.9759 58.8213 21.208 58.6193 21.364ZM49.4839 18.62C49.4839 18.3601 49.3836 18.1108 49.2051 17.927C49.0267 17.7432 48.7846 17.64 48.5323 17.64H10.4677C10.2154 17.64 9.97331 17.7432 9.79485 17.927C9.61639 18.1108 9.51613 18.3601 9.51613 18.62V42.14C9.51613 43.4396 10.0174 44.6859 10.9097 45.6048C11.802 46.5237 13.0123 47.04 14.2742 47.04H44.7258C45.9877 47.04 47.198 46.5237 48.0903 45.6048C48.9826 44.6859 49.4839 43.4396 49.4839 42.14V18.62Z" fill="black"/>
</svg>
