<svg width="23" height="23" viewBox="0 0 23 23" fill="none" xmlns="http://www.w3.org/2000/svg">
<path d="M21.62 0H1.38C1.014 0 0.662993 0.173086 0.404193 0.481181C0.145392 0.789277 0 1.20714 0 1.64286V21.3571C0 21.7929 0.145392 22.2107 0.404193 22.5188C0.662993 22.8269 1.014 23 1.38 23H21.62C21.986 23 22.337 22.8269 22.5958 22.5188C22.8546 22.2107 23 21.7929 23 21.3571V1.64286C23 1.20714 22.8546 0.789277 22.5958 0.481181C22.337 0.173086 21.986 0 21.62 0ZM1.38 1.09524H21.62C21.742 1.09524 21.859 1.15293 21.9453 1.25563C22.0315 1.35833 22.08 1.49762 22.08 1.64286V17.031L18.2977 12.5282C18.1694 12.375 18.0171 12.2535 17.8494 12.1706C17.6816 12.0876 17.5018 12.045 17.3202 12.045C17.1385 12.045 16.9587 12.0876 16.7909 12.1706C16.6232 12.2535 16.4709 12.375 16.3426 12.5282L13.7172 15.6537L8.3329 9.24244C8.20469 9.08928 8.05235 8.96776 7.88461 8.88484C7.71687 8.80192 7.53703 8.75924 7.3554 8.75924C7.17377 8.75924 6.99393 8.80192 6.82619 8.88484C6.65845 8.96776 6.50611 9.08928 6.3779 9.24244L0.92 15.744V1.64286C0.92 1.49762 0.968464 1.35833 1.05473 1.25563C1.141 1.15293 1.258 1.09524 1.38 1.09524ZM0.92 21.3571V17.2965L7.03455 10.0173C7.07727 9.96641 7.128 9.92601 7.18385 9.89845C7.23969 9.8709 7.29955 9.85671 7.36 9.85671C7.42045 9.85671 7.48031 9.8709 7.53615 9.89845C7.592 9.92601 7.64273 9.96641 7.68545 10.0173L17.6709 21.9048H1.38C1.258 21.9048 1.141 21.8471 1.05473 21.7444C0.968464 21.6417 0.92 21.5024 0.92 21.3571ZM21.62 21.9048H18.975L14.375 16.4286L17.0005 13.303C17.0432 13.2521 17.0939 13.2117 17.1497 13.1842C17.2056 13.1566 17.2654 13.1424 17.3259 13.1424C17.3864 13.1424 17.4462 13.1566 17.5021 13.1842C17.5579 13.2117 17.6086 13.2521 17.6514 13.303L22.08 18.5793V21.3571C22.08 21.5024 22.0315 21.6417 21.9453 21.7444C21.859 21.8471 21.742 21.9048 21.62 21.9048ZM13.8 7.66667C13.8 7.45005 13.854 7.2383 13.955 7.05818C14.0561 6.87807 14.1998 6.73769 14.3679 6.6548C14.536 6.5719 14.721 6.55021 14.8995 6.59247C15.0779 6.63473 15.2419 6.73904 15.3705 6.89222C15.4992 7.04539 15.5868 7.24054 15.6223 7.453C15.6578 7.66545 15.6396 7.88567 15.57 8.0858C15.5003 8.28592 15.3824 8.45698 15.2311 8.57732C15.0798 8.69767 14.902 8.7619 14.72 8.7619C14.476 8.7619 14.242 8.64651 14.0695 8.44112C13.8969 8.23572 13.8 7.95714 13.8 7.66667Z" fill="black"/>
</svg>
