<svg width="35" height="35" viewBox="0 0 35 35" fill="none" xmlns="http://www.w3.org/2000/svg">
<path d="M35 17.5C35 20.9612 33.9737 24.3446 32.0507 27.2225C30.1278 30.1003 27.3947 32.3434 24.197 33.6679C20.9993 34.9924 17.4806 35.339 14.0859 34.6637C10.6913 33.9885 7.57306 32.3218 5.12564 29.8744C2.67822 27.4269 1.01151 24.3087 0.336265 20.9141C-0.338976 17.5194 0.00758246 14.0007 1.33212 10.803C2.65665 7.60532 4.89967 4.8722 7.77753 2.94927C10.6554 1.02635 14.0388 -7.15256e-06 17.5 -7.15256e-06C22.1397 0.00528625 26.5878 1.85073 29.8685 5.13147C33.1493 8.41221 34.9947 12.8603 35 17.5ZM2.50001 17.5C2.50001 20.4667 3.37974 23.3668 5.02796 25.8335C6.67618 28.3003 9.01887 30.2229 11.7598 31.3582C14.5006 32.4935 17.5166 32.7905 20.4264 32.2118C23.3361 31.633 26.0088 30.2044 28.1066 28.1066C30.2044 26.0088 31.633 23.3361 32.2118 20.4263C32.7906 17.5166 32.4935 14.5006 31.3582 11.7597C30.2229 9.01885 28.3003 6.67617 25.8336 5.02795C23.3668 3.37973 20.4667 2.49999 17.5 2.49999C13.5232 2.50462 9.71056 4.08646 6.89852 6.89851C4.08648 9.71055 2.50464 13.5232 2.50001 17.5Z" fill="#353430"/>
<path d="M7.5 17.5L9.24125 19.2875L16.25 12.3125L16.25 27.5H18.75L18.75 12.3125L25.7162 19.2875L27.5 17.5L17.5 7.5L7.5 17.5Z" fill="#353430"/>
</svg>
